<?xml version="1.0" encoding="UTF-8"?>
<svg id="Camada_1" data-name="Camada 1" xmlns="http://www.w3.org/2000/svg" version="1.1" xmlns:xlink="http://www.w3.org/1999/xlink" viewBox="0 0 246.1 66.1">
  <defs>
    <style>
      .cls-1 {
        fill: url(#Gradiente_sem_nome_2);
      }

      .cls-1, .cls-2, .cls-3, .cls-4 {
        stroke-width: 0px;
      }

      .cls-2 {
        fill: url(#Gradiente_sem_nome);
      }

      .cls-3 {
        fill: #fff;
      }

      .cls-4 {
        fill: url(#Gradiente_sem_nome_3);
      }
    </style>
    <linearGradient id="Gradiente_sem_nome" data-name="Gradiente sem nome" x1="1.5" y1="174.8" x2="99.5" y2="174.8" gradientTransform="translate(0 208) scale(1 -1)" gradientUnits="userSpaceOnUse">
      <stop offset="0" stop-color="#e6e6e6"/>
      <stop offset="1" stop-color="#fff"/>
    </linearGradient>
    <linearGradient id="Gradiente_sem_nome_2" data-name="Gradiente sem nome 2" x1="1.5" y1="174.8" x2="99.5" y2="174.8" gradientTransform="translate(0 208) scale(1 -1)" gradientUnits="userSpaceOnUse">
      <stop offset="0" stop-color="#e6e6e6"/>
      <stop offset="1" stop-color="#fff"/>
    </linearGradient>
    <linearGradient id="Gradiente_sem_nome_3" data-name="Gradiente sem nome 3" x1="1.5" y1="174.8" x2="99.5" y2="174.8" gradientTransform="translate(0 208) scale(1 -1)" gradientUnits="userSpaceOnUse">
      <stop offset="0" stop-color="#e6e6e6"/>
      <stop offset="1" stop-color="#fff"/>
    </linearGradient>
  </defs>
  <g>
    <path class="cls-2" d="M1.5,37.1v-7.7l27.2-15.4,3.8,7.4-21.5,11.8,21.5,11.8-3.8,7.4L1.5,37.1Z"/>
    <path class="cls-1" d="M34.2,60.8L57.6,2.2l8.9,3.4-23.4,58.6-8.9-3.4Z"/>
    <path class="cls-4" d="M68.5,45l21.5-11.8-21.5-11.8,3.8-7.4,27.2,15.4v7.7l-27.2,15.4-3.8-7.4Z"/>
  </g>
  <path class="cls-3" d="M159,19.3h-5.3c0-.5-.2-1-.4-1.5-.2-.4-.5-.8-.9-1.1s-.8-.6-1.3-.7c-.5-.2-1-.3-1.6-.3-1.1,0-2,.3-2.7.8-.8.5-1.3,1.3-1.8,2.2-.4,1-.6,2.2-.6,3.6s.2,2.7.6,3.6c.4,1,1,1.7,1.8,2.2.8.5,1.7.7,2.7.7s1.1,0,1.6-.2c.5-.1.9-.4,1.3-.6.4-.3.7-.6.9-1.1.2-.4.4-.9.5-1.4h5.3c0,1-.4,1.9-.8,2.9-.5.9-1.1,1.8-1.9,2.6-.8.8-1.8,1.4-3,1.8-1.2.5-2.5.7-4,.7s-3.7-.4-5.3-1.3c-1.6-.9-2.8-2.1-3.7-3.8-.9-1.7-1.4-3.7-1.4-6.1s.5-4.4,1.4-6.1c.9-1.7,2.2-2.9,3.7-3.8,1.6-.9,3.3-1.3,5.3-1.3s2.5.2,3.7.6c1.1.4,2.1.9,3,1.6.9.7,1.5,1.6,2.1,2.6.5,1,.9,2.2,1,3.5ZM169.6,33.6c-1.7,0-3.2-.4-4.4-1.1-1.2-.7-2.2-1.7-2.8-3-.7-1.3-1-2.7-1-4.4s.3-3.2,1-4.4c.7-1.3,1.6-2.3,2.8-3,1.2-.7,2.7-1.1,4.4-1.1s3.2.4,4.4,1.1c1.2.7,2.2,1.7,2.8,3,.7,1.3,1,2.7,1,4.4s-.3,3.1-1,4.4c-.7,1.3-1.6,2.3-2.8,3-1.2.7-2.7,1.1-4.4,1.1ZM169.7,29.6c.6,0,1.2-.2,1.6-.6.4-.4.8-.9,1-1.6.2-.7.4-1.5.4-2.4s-.1-1.7-.4-2.4c-.2-.7-.6-1.2-1-1.6-.4-.4-1-.6-1.6-.6s-1.2.2-1.6.6c-.4.4-.8.9-1,1.6-.2.7-.3,1.5-.3,2.4s.1,1.7.3,2.4c.2.7.6,1.2,1,1.6.4.4,1,.6,1.6.6ZM186.5,33.5c-1.2,0-2.3-.3-3.3-.9-1-.6-1.8-1.6-2.4-2.8-.6-1.2-.9-2.8-.9-4.7s.3-3.5.9-4.8c.6-1.2,1.4-2.2,2.4-2.8,1-.6,2.1-.9,3.2-.9s1.6.1,2.2.4c.6.3,1.1.7,1.5,1.1.4.5.7.9.9,1.4h.1v-8.3h5.2v21.8h-5.2v-2.7h-.2c-.2.5-.5,1-.9,1.4s-.9.8-1.5,1.1c-.6.3-1.3.4-2.1.4ZM188.3,29.4c.6,0,1.2-.2,1.6-.5.4-.4.8-.9,1-1.5.2-.7.4-1.4.4-2.3s-.1-1.7-.4-2.3c-.2-.6-.6-1.1-1-1.5-.4-.3-1-.5-1.6-.5s-1.2.2-1.6.5c-.4.4-.8.9-1,1.5-.2.6-.3,1.4-.3,2.3s.1,1.6.4,2.3c.2.7.6,1.2,1,1.5.4.4,1,.5,1.6.5ZM199.7,33.2v-16.4h5.2v16.4h-5.2ZM202.4,15c-.7,0-1.4-.2-1.9-.7-.5-.5-.8-1.1-.8-1.8s.3-1.3.8-1.7c.5-.5,1.2-.7,1.9-.7s1.4.2,1.9.7c.5.5.8,1.1.8,1.7s-.3,1.3-.8,1.8c-.5.5-1.1.7-1.9.7ZM217.6,16.9v3.8h-10.5v-3.8h10.5ZM209.2,33.2v-17.2c0-1.3.2-2.3.7-3.1.5-.8,1.1-1.5,2-1.9.8-.4,1.8-.6,2.9-.6s1.4,0,2,.2c.6.1,1.1.2,1.4.3l-.8,3.8c-.2,0-.4-.1-.7-.2-.3,0-.5,0-.8,0-.6,0-1,.1-1.3.4-.2.3-.3.6-.3,1.1v17.3h-5.2ZM223.3,39.4c-.6,0-1.2,0-1.8-.1-.6,0-1-.2-1.4-.4l1.2-3.8c.5.2,1,.3,1.4.3.4,0,.8,0,1.1-.2.3-.2.5-.4.7-.8l.2-.5-5.8-17h5.5l3,11.7h.2l3.1-11.7h5.5l-6.2,17.9c-.3.9-.7,1.7-1.3,2.4-.5.7-1.2,1.2-2.1,1.6-.9.4-1.9.6-3.2.6ZM151,47.2h-1.8c-.1-.5-.3-1-.5-1.3-.3-.4-.6-.7-.9-1-.4-.3-.8-.5-1.2-.6-.4-.1-.9-.2-1.4-.2-.9,0-1.7.2-2.4.7-.7.4-1.3,1.1-1.7,2-.4.9-.6,1.9-.6,3.2s.2,2.3.6,3.2c.4.9,1,1.5,1.7,2,.7.4,1.5.7,2.4.7s.9,0,1.4-.2c.4-.1.9-.3,1.2-.6.4-.3.7-.6.9-1,.3-.4.4-.8.5-1.3h1.8c-.1.7-.4,1.4-.7,2-.3.6-.8,1.1-1.3,1.5-.5.4-1.1.7-1.8.9-.6.2-1.3.3-2.1.3-1.2,0-2.3-.3-3.3-.9s-1.7-1.5-2.3-2.6c-.6-1.1-.8-2.4-.8-4s.3-2.9.8-4,1.3-2,2.3-2.6c1-.6,2.1-.9,3.3-.9s1.4.1,2.1.3c.6.2,1.2.5,1.8.9.5.4,1,.9,1.3,1.5.4.6.6,1.2.7,2ZM158,57.5c-1,0-1.8-.2-2.6-.7-.7-.5-1.3-1.1-1.7-2-.4-.8-.6-1.8-.6-3s.2-2.1.6-3c.4-.8,1-1.5,1.7-2,.7-.5,1.6-.7,2.6-.7s1.8.2,2.6.7c.7.5,1.3,1.1,1.7,2,.4.8.6,1.8.6,3s-.2,2.1-.6,3c-.4.8-1,1.5-1.7,2-.7.5-1.6.7-2.6.7ZM158,56c.7,0,1.4-.2,1.8-.6.5-.4.8-.9,1.1-1.5.2-.6.3-1.3.3-2s-.1-1.4-.3-2c-.2-.6-.6-1.1-1.1-1.5-.5-.4-1.1-.6-1.8-.6s-1.4.2-1.8.6c-.5.4-.8.9-1.1,1.5-.2.6-.3,1.3-.3,2s.1,1.4.3,2c.2.6.6,1.1,1.1,1.5.5.4,1.1.6,1.8.6ZM165.5,57.2v-10.9h1.6v1.7h.1c.2-.6.6-1,1.1-1.4.5-.3,1.1-.5,1.8-.5s1.3.2,1.8.5c.5.3.9.8,1.1,1.4h.1c.3-.6.7-1,1.3-1.3.6-.3,1.2-.5,2-.5s1.8.3,2.4.9c.6.6.9,1.6.9,2.8v7.3h-1.7v-7.3c0-.8-.2-1.4-.7-1.7-.4-.3-1-.5-1.6-.5s-1.4.2-1.8.7c-.4.5-.6,1-.6,1.7v7.1h-1.7v-7.5c0-.6-.2-1.1-.6-1.5-.4-.4-.9-.6-1.6-.6s-.8.1-1.2.3c-.4.2-.7.6-.9,1-.2.4-.3.9-.3,1.4v6.8h-1.7ZM182.9,57.2v-10.9h1.6v1.7h.1c.2-.6.6-1,1.1-1.4.5-.3,1.1-.5,1.8-.5s1.3.2,1.8.5c.5.3.9.8,1.1,1.4h.1c.3-.6.7-1,1.3-1.3.6-.3,1.2-.5,2-.5s1.8.3,2.4.9c.6.6.9,1.6.9,2.8v7.3h-1.7v-7.3c0-.8-.2-1.4-.7-1.7-.4-.3-1-.5-1.6-.5s-1.4.2-1.8.7c-.4.5-.6,1-.6,1.7v7.1h-1.7v-7.5c0-.6-.2-1.1-.6-1.5-.4-.4-.9-.6-1.6-.6s-.8.1-1.2.3c-.4.2-.7.6-.9,1-.2.4-.3.9-.3,1.4v6.8h-1.7ZM207.2,52.8v-6.4h1.7v10.9h-1.7v-1.8h-.1c-.3.6-.7,1-1.2,1.4-.5.4-1.2.6-2,.6s-1.3-.1-1.8-.4c-.5-.3-.9-.8-1.2-1.4-.3-.6-.5-1.4-.5-2.3v-6.9h1.7v6.8c0,.8.2,1.4.7,1.9.5.5,1,.7,1.7.7s.8-.1,1.3-.3c.4-.2.8-.5,1.1-1,.3-.4.4-1,.4-1.7ZM213.6,50.7v6.6h-1.7v-10.9h1.6v1.7h.1c.3-.6.6-1,1.2-1.3.5-.3,1.2-.5,2-.5s1.4.2,1.9.5c.6.3,1,.8,1.3,1.4.3.6.5,1.4.5,2.3v6.9h-1.7v-6.8c0-.9-.2-1.5-.7-2-.4-.5-1.1-.7-1.8-.7s-1,.1-1.4.3c-.4.2-.7.6-1,1-.2.4-.4,1-.4,1.6ZM223.6,57.2v-10.9h1.7v10.9h-1.7ZM224.5,44.5c-.3,0-.6-.1-.8-.3-.2-.2-.3-.5-.3-.8s.1-.6.3-.8c.2-.2.5-.3.8-.3s.6.1.8.3c.2.2.4.5.4.8s-.1.6-.4.8c-.2.2-.5.3-.8.3ZM233.1,46.3v1.4h-5.7v-1.4h5.7ZM229.1,43.7h1.7v10.4c0,.5,0,.8.2,1.1.1.2.3.4.5.5.2,0,.5.1.7.1s.3,0,.5,0c.1,0,.2,0,.3,0l.3,1.5c-.1,0-.3,0-.5.1-.2,0-.5,0-.8,0-.5,0-.9-.1-1.4-.3-.5-.2-.8-.5-1.1-.9-.3-.4-.4-.9-.4-1.6v-10.9ZM236.7,61.3c-.3,0-.5,0-.8,0-.2,0-.4,0-.5-.1l.4-1.5c.4.1.8.1,1.1.1.3,0,.6-.2.8-.4.2-.2.5-.6.7-1.2l.3-.9-4-11h1.8l3,8.7h.1l3-8.7h1.8l-4.6,12.5c-.2.6-.5,1-.8,1.4-.3.4-.7.7-1.1.8-.4.2-.9.3-1.4.3Z"/>
</svg>