<svg width="32" height="32" viewBox="0 0 32 32" fill="none" xmlns="http://www.w3.org/2000/svg">
<g clip-path="url(#clip0_309_851)">
<path d="M0 0H32V32H0V0Z" fill="url(#paint0_linear_309_851)"/>
<path d="M4.66553 16.8787V15.1212L10.9503 11.6219L11.8258 13.3166L6.86989 16L11.8258 18.6833L10.9503 20.3781L4.66553 16.8787Z" fill="url(#paint1_linear_309_851)"/>
<path d="M12.2052 22.2768L17.6145 8.93854L19.6625 9.72314L14.2532 23.0614L12.2052 22.2768Z" fill="url(#paint2_linear_309_851)"/>
<path d="M20.1198 18.6833L25.0757 16L20.1198 13.3166L20.9953 11.6219L27.2801 15.1212V16.8787L20.9953 20.3781L20.1198 18.6833Z" fill="url(#paint3_linear_309_851)"/>
</g>
<defs>
<linearGradient id="paint0_linear_309_851" x1="-7.37238e-09" y1="16" x2="32" y2="16" gradientUnits="userSpaceOnUse">
<stop stop-color="#7150D2"/>
<stop offset="1" stop-color="#9F6CFD"/>
</linearGradient>
<linearGradient id="paint1_linear_309_851" x1="4.66553" y1="16" x2="27.2801" y2="16" gradientUnits="userSpaceOnUse">
<stop stop-color="#E6E6E6"/>
<stop offset="1" stop-color="white"/>
</linearGradient>
<linearGradient id="paint2_linear_309_851" x1="4.66553" y1="16" x2="27.2801" y2="16" gradientUnits="userSpaceOnUse">
<stop stop-color="#E6E6E6"/>
<stop offset="1" stop-color="white"/>
</linearGradient>
<linearGradient id="paint3_linear_309_851" x1="4.66553" y1="16" x2="27.2801" y2="16" gradientUnits="userSpaceOnUse">
<stop stop-color="#E6E6E6"/>
<stop offset="1" stop-color="white"/>
</linearGradient>
<clipPath id="clip0_309_851">
<rect width="32" height="32" rx="4" fill="white"/>
</clipPath>
</defs>
</svg>
