<svg width="190" height="73" viewBox="0 0 190 73" fill="none" xmlns="http://www.w3.org/2000/svg">
<g clip-path="url(#clip0_308_658)">
<g clip-path="url(#clip1_308_658)">
<g filter="url(#filter0_d_308_658)">
<path d="M0 14.5C0 10.0817 3.58172 6.5 8 6.5H52C56.4183 6.5 60 10.0817 60 14.5V58.5C60 62.9183 56.4183 66.5 52 66.5H8C3.58172 66.5 0 62.9183 0 58.5V14.5Z" fill="url(#paint0_linear_308_658)"/>
<path d="M8.74781 38.1477V34.8523L20.5318 28.291L22.1733 31.4687L12.881 36.5L22.1733 41.5313L20.5318 44.7089L8.74781 38.1477Z" fill="url(#paint1_linear_308_658)"/>
<path d="M22.8846 48.2691L33.0271 23.2598L36.8671 24.7309L26.7247 49.7402L22.8846 48.2691Z" fill="url(#paint2_linear_308_658)"/>
<path d="M37.7245 41.5313L47.0169 36.5L37.7245 31.4687L39.3661 28.291L51.15 34.8523V38.1477L39.3661 44.7089L37.7245 41.5313Z" fill="url(#paint3_linear_308_658)"/>
</g>
</g>
<path d="M86.4 35.3C81.88 35.3 78.55 34.34 76.41 32.42C74.27 30.5 73.2 27.76 73.2 24.2C73.2 20.62 74.27 17.79 76.41 15.71C78.55 13.63 81.88 12.59 86.4 12.59C92.72 12.59 96.95 14.76 99.09 19.1C97.29 19.72 95.18 20.65 92.76 21.89C92.18 20.77 91.26 19.94 90 19.4C88.76 18.86 87.49 18.59 86.19 18.59C84.27 18.59 82.84 19.1 81.9 20.12C80.96 21.12 80.49 22.36 80.49 23.84C80.49 25.44 80.99 26.75 81.99 27.77C83.01 28.77 84.56 29.27 86.64 29.27C88.3 29.27 89.62 29 90.6 28.46C91.58 27.9 92.3 27.02 92.76 25.82C94.4 26.7 96.5 27.69 99.06 28.79C98.06 31.21 96.39 32.9 94.05 33.86C91.71 34.82 89.16 35.3 86.4 35.3ZM111.161 35.3C107.741 35.3 105.221 34.52 103.601 32.96C102.001 31.38 101.201 29.31 101.201 26.75C101.201 24.25 102.001 22.22 103.601 20.66C105.221 19.1 107.741 18.32 111.161 18.32C113.461 18.32 115.381 18.7 116.921 19.46C118.481 20.2 119.631 21.21 120.371 22.49C121.111 23.75 121.481 25.17 121.481 26.75C121.481 29.33 120.621 31.4 118.901 32.96C117.201 34.52 114.621 35.3 111.161 35.3ZM111.281 30.2C112.581 30.2 113.551 29.89 114.191 29.27C114.831 28.65 115.151 27.82 115.151 26.78C115.151 25.8 114.831 25 114.191 24.38C113.551 23.74 112.581 23.42 111.281 23.42C109.981 23.42 109.031 23.73 108.431 24.35C107.831 24.97 107.531 25.78 107.531 26.78C107.531 27.82 107.831 28.65 108.431 29.27C109.031 29.89 109.981 30.2 111.281 30.2ZM143.211 11.66C143.091 15.38 143.031 19.27 143.031 23.33C143.031 27.35 143.091 31.24 143.211 35H136.431L136.521 31.4C135.941 32.74 135.101 33.73 134.001 34.37C132.901 34.99 131.601 35.3 130.101 35.3C128.801 35.3 127.631 34.93 126.591 34.19C125.551 33.45 124.741 32.45 124.161 31.19C123.581 29.91 123.291 28.51 123.291 26.99C123.291 25.49 123.581 24.08 124.161 22.76C124.741 21.42 125.551 20.35 126.591 19.55C127.651 18.73 128.851 18.32 130.191 18.32C131.751 18.32 133.081 18.65 134.181 19.31C135.301 19.95 136.131 20.95 136.671 22.31C136.671 21.17 136.631 19.34 136.551 16.82C136.471 14.38 136.431 12.66 136.431 11.66H143.211ZM133.251 30.26C134.231 30.26 135.031 29.99 135.651 29.45C136.271 28.89 136.581 28.01 136.581 26.81C136.581 25.75 136.271 24.97 135.651 24.47C135.031 23.97 134.251 23.72 133.311 23.72C132.411 23.72 131.651 24.01 131.031 24.59C130.431 25.15 130.131 25.89 130.131 26.81C130.131 27.83 130.411 28.66 130.971 29.3C131.531 29.94 132.291 30.26 133.251 30.26ZM149.642 16.85C148.382 16.85 147.442 16.54 146.822 15.92C146.222 15.3 145.922 14.49 145.922 13.49C145.922 12.51 146.222 11.7 146.822 11.06C147.442 10.42 148.382 10.1 149.642 10.1C150.842 10.1 151.762 10.43 152.402 11.09C153.042 11.73 153.362 12.53 153.362 13.49C153.362 14.49 153.052 15.3 152.432 15.92C151.812 16.54 150.882 16.85 149.642 16.85ZM146.162 35C146.302 31.78 146.372 29.12 146.372 27.02C146.372 24.52 146.292 21.72 146.132 18.62H153.332C153.172 21.6 153.092 24.4 153.092 27.02C153.092 29.22 153.162 31.88 153.302 35H146.162ZM162.682 17.24C162.642 17.34 162.622 17.47 162.622 17.63C162.622 17.95 162.752 18.21 163.012 18.41C163.292 18.59 163.672 18.68 164.152 18.68H168.112V23.99C166.452 23.85 165.132 23.77 164.152 23.75C164.172 27.47 164.252 31.22 164.392 35H157.282C157.302 32.64 157.312 28.92 157.312 23.84C156.892 23.86 156.172 23.91 155.152 23.99V18.68H157.282V18.11C157.282 16.55 157.602 15.22 158.242 14.12C158.882 13.02 159.762 12.19 160.882 11.63C162.022 11.07 163.322 10.79 164.782 10.79C165.962 10.79 167.152 10.96 168.352 11.3C167.952 12.76 167.552 14.59 167.152 16.79L166.972 17.69C166.532 17.31 166.042 17.03 165.502 16.85C164.982 16.65 164.502 16.55 164.062 16.55C163.702 16.55 163.402 16.61 163.162 16.73C162.922 16.85 162.762 17.02 162.682 17.24ZM189.883 18.62L189.193 20.36C187.293 25.42 185.303 30.3 183.223 35C182.143 37.4 180.583 39.32 178.543 40.76C176.503 42.22 173.943 42.92 170.863 42.86C170.483 41.2 170.163 39.9 169.903 38.96C169.663 38.04 169.343 37.11 168.943 36.17C170.043 36.43 171.073 36.56 172.033 36.56C173.593 36.56 174.833 36.23 175.753 35.57C175.033 33.43 174.183 31.13 173.203 28.67C172.223 26.21 170.803 22.86 168.943 18.62H176.053C176.293 19.62 176.623 20.78 177.043 22.1C177.463 23.42 177.883 24.69 178.303 25.91C178.423 26.29 178.613 26.87 178.873 27.65C179.153 28.41 179.373 29.05 179.533 29.57L180.313 27.2C181.813 22.86 182.703 20 182.983 18.62H189.883ZM72.96 58C72.96 56.6267 73.26 55.4 73.86 54.32C74.46 53.2267 75.28 52.38 76.32 51.78C77.36 51.1667 78.52 50.86 79.8 50.86C81.36 50.86 82.6933 51.2333 83.8 51.98C84.92 52.7133 85.7333 53.7533 86.24 55.1H84.6C84.2 54.1533 83.5867 53.4133 82.76 52.88C81.9467 52.3467 80.96 52.08 79.8 52.08C78.7733 52.08 77.8467 52.32 77.02 52.8C76.2067 53.28 75.5667 53.9733 75.1 54.88C74.6333 55.7733 74.4 56.8133 74.4 58C74.4 59.1867 74.6333 60.2267 75.1 61.12C75.5667 62.0133 76.2067 62.7 77.02 63.18C77.8467 63.66 78.7733 63.9 79.8 63.9C80.96 63.9 81.9467 63.64 82.76 63.12C83.5867 62.5867 84.2 61.8533 84.6 60.92H86.24C85.7333 62.2533 84.92 63.2867 83.8 64.02C82.68 64.7533 81.3467 65.12 79.8 65.12C78.52 65.12 77.36 64.82 76.32 64.22C75.28 63.6067 74.46 62.76 73.86 61.68C73.26 60.6 72.96 59.3733 72.96 58ZM93.8097 65.16C92.783 65.16 91.8564 64.9333 91.0297 64.48C90.2164 64.0133 89.5697 63.36 89.0897 62.52C88.623 61.6667 88.3897 60.6733 88.3897 59.54C88.3897 58.4067 88.6297 57.42 89.1097 56.58C89.5897 55.7267 90.243 55.0733 91.0697 54.62C91.8964 54.1533 92.823 53.92 93.8497 53.92C94.8764 53.92 95.803 54.1533 96.6297 54.62C97.4697 55.0733 98.123 55.7267 98.5897 56.58C99.0697 57.42 99.3097 58.4067 99.3097 59.54C99.3097 60.66 99.0697 61.6467 98.5897 62.5C98.1097 63.3533 97.4497 64.0133 96.6097 64.48C95.7697 64.9333 94.8364 65.16 93.8097 65.16ZM93.8097 63.94C94.5297 63.94 95.1964 63.78 95.8097 63.46C96.423 63.1267 96.9164 62.6333 97.2897 61.98C97.6764 61.3133 97.8697 60.5 97.8697 59.54C97.8697 58.58 97.683 57.7733 97.3097 57.12C96.9364 56.4533 96.443 55.96 95.8297 55.64C95.2164 55.3067 94.5497 55.14 93.8297 55.14C93.1097 55.14 92.443 55.3067 91.8297 55.64C91.2164 55.96 90.723 56.4533 90.3497 57.12C89.9897 57.7733 89.8097 58.58 89.8097 59.54C89.8097 60.5 89.9897 61.3133 90.3497 61.98C90.723 62.6333 91.2097 63.1267 91.8097 63.46C92.423 63.78 93.0897 63.94 93.8097 63.94ZM114.862 53.88C116.142 53.88 117.182 54.2867 117.982 55.1C118.795 55.9 119.202 57.0667 119.202 58.6V65H117.822V58.76C117.822 57.5733 117.535 56.6667 116.962 56.04C116.388 55.4133 115.608 55.1 114.622 55.1C113.595 55.1 112.775 55.44 112.162 56.12C111.548 56.8 111.242 57.7867 111.242 59.08V65H109.862V58.76C109.862 57.5733 109.575 56.6667 109.002 56.04C108.428 55.4133 107.642 55.1 106.642 55.1C105.615 55.1 104.795 55.44 104.182 56.12C103.568 56.8 103.262 57.7867 103.262 59.08V65H101.862V54.08H103.262V55.96C103.608 55.28 104.102 54.7667 104.742 54.42C105.382 54.06 106.095 53.88 106.882 53.88C107.828 53.88 108.655 54.1067 109.362 54.56C110.082 55.0133 110.602 55.68 110.922 56.56C111.215 55.6933 111.715 55.0333 112.422 54.58C113.142 54.1133 113.955 53.88 114.862 53.88ZM135.311 53.88C136.591 53.88 137.631 54.2867 138.431 55.1C139.244 55.9 139.651 57.0667 139.651 58.6V65H138.271V58.76C138.271 57.5733 137.984 56.6667 137.411 56.04C136.838 55.4133 136.058 55.1 135.071 55.1C134.044 55.1 133.224 55.44 132.611 56.12C131.998 56.8 131.691 57.7867 131.691 59.08V65H130.311V58.76C130.311 57.5733 130.024 56.6667 129.451 56.04C128.878 55.4133 128.091 55.1 127.091 55.1C126.064 55.1 125.244 55.44 124.631 56.12C124.018 56.8 123.711 57.7867 123.711 59.08V65H122.311V54.08H123.711V55.96C124.058 55.28 124.551 54.7667 125.191 54.42C125.831 54.06 126.544 53.88 127.331 53.88C128.278 53.88 129.104 54.1067 129.811 54.56C130.531 55.0133 131.051 55.68 131.371 56.56C131.664 55.6933 132.164 55.0333 132.871 54.58C133.591 54.1133 134.404 53.88 135.311 53.88ZM152.22 54.08V65H150.82V63.08C150.5 63.76 150.007 64.28 149.34 64.64C148.673 65 147.927 65.18 147.1 65.18C145.793 65.18 144.727 64.78 143.9 63.98C143.073 63.1667 142.66 61.9933 142.66 60.46V54.08H144.04V60.3C144.04 61.4867 144.333 62.3933 144.92 63.02C145.52 63.6467 146.333 63.96 147.36 63.96C148.413 63.96 149.253 63.6267 149.88 62.96C150.507 62.2933 150.82 61.3133 150.82 60.02V54.08H152.22ZM160.536 53.88C161.843 53.88 162.91 54.2867 163.736 55.1C164.563 55.9 164.976 57.0667 164.976 58.6V65H163.596V58.76C163.596 57.5733 163.296 56.6667 162.696 56.04C162.11 55.4133 161.303 55.1 160.276 55.1C159.223 55.1 158.383 55.4333 157.756 56.1C157.13 56.7667 156.816 57.7467 156.816 59.04V65H155.416V54.08H156.816V55.94C157.163 55.2733 157.663 54.7667 158.316 54.42C158.97 54.06 159.71 53.88 160.536 53.88ZM168.773 52.02C168.493 52.02 168.253 51.92 168.053 51.72C167.853 51.52 167.753 51.2733 167.753 50.98C167.753 50.6867 167.853 50.4467 168.053 50.26C168.253 50.06 168.493 49.96 168.773 49.96C169.053 49.96 169.293 50.06 169.493 50.26C169.693 50.4467 169.793 50.6867 169.793 50.98C169.793 51.2733 169.693 51.52 169.493 51.72C169.293 51.92 169.053 52.02 168.773 52.02ZM169.473 54.08V65H168.073V54.08H169.473ZM174.463 55.26V62.04C174.463 62.7067 174.59 63.1667 174.843 63.42C175.096 63.6733 175.543 63.8 176.183 63.8H177.463V65H175.963C174.976 65 174.243 64.7733 173.763 64.32C173.283 63.8533 173.043 63.0933 173.043 62.04V55.26H171.523V54.08H173.043V51.34H174.463V54.08H177.463V55.26H174.463ZM188.772 54.08L182.292 70.14H180.832L182.952 64.94L178.472 54.08H180.012L183.732 63.4L187.332 54.08H188.772Z" fill="white"/>
</g>
<defs>
<filter id="filter0_d_308_658" x="-92" y="-85.5" width="244" height="244" filterUnits="userSpaceOnUse" color-interpolation-filters="sRGB">
<feFlood flood-opacity="0" result="BackgroundImageFix"/>
<feColorMatrix in="SourceAlpha" type="matrix" values="0 0 0 0 0 0 0 0 0 0 0 0 0 0 0 0 0 0 127 0" result="hardAlpha"/>
<feOffset/>
<feGaussianBlur stdDeviation="46"/>
<feComposite in2="hardAlpha" operator="out"/>
<feColorMatrix type="matrix" values="0 0 0 0 0 0 0 0 0 0 0 0 0 0 0 0 0 0 0.55 0"/>
<feBlend mode="normal" in2="BackgroundImageFix" result="effect1_dropShadow_308_658"/>
<feBlend mode="normal" in="SourceGraphic" in2="effect1_dropShadow_308_658" result="shape"/>
</filter>
<linearGradient id="paint0_linear_308_658" x1="-1.38235e-08" y1="36.5" x2="60" y2="36.5" gradientUnits="userSpaceOnUse">
<stop stop-color="#7150D2"/>
<stop offset="1" stop-color="#9F6CFD"/>
</linearGradient>
<linearGradient id="paint1_linear_308_658" x1="8.74781" y1="36.5" x2="51.15" y2="36.5" gradientUnits="userSpaceOnUse">
<stop stop-color="#E6E6E6"/>
<stop offset="1" stop-color="white"/>
</linearGradient>
<linearGradient id="paint2_linear_308_658" x1="8.74781" y1="36.5" x2="51.15" y2="36.5" gradientUnits="userSpaceOnUse">
<stop stop-color="#E6E6E6"/>
<stop offset="1" stop-color="white"/>
</linearGradient>
<linearGradient id="paint3_linear_308_658" x1="8.74781" y1="36.5" x2="51.15" y2="36.5" gradientUnits="userSpaceOnUse">
<stop stop-color="#E6E6E6"/>
<stop offset="1" stop-color="white"/>
</linearGradient>
<clipPath id="clip0_308_658">
<rect width="190" height="73" fill="white"/>
</clipPath>
<clipPath id="clip1_308_658">
<rect width="60" height="60" fill="white" transform="translate(0 6.5)"/>
</clipPath>
</defs>
</svg>
